<?xml version="1.0" encoding="utf-8"?>
<!-- Generator: Adobe Illustrator 25.0.0, SVG Export Plug-In . SVG Version: 6.00 Build 0)  -->
<svg version="1.1" id="Layer_1" xmlns="http://www.w3.org/2000/svg" xmlns:xlink="http://www.w3.org/1999/xlink" x="0px" y="0px"
	 viewBox="0 0 1024 1024" style="enable-background:new 0 0 1024 1024;" xml:space="preserve">
<style type="text/css">
	.st0{fill:#aaa;}
</style>
<path class="st0" d="M770.65,471.98c-0.6,1.14-1.21,2.28-2.34,5.14c0,0-0.88,1.57-3.19,2.14c-1.36,2.62-2.72,5.23-4.54,9.57
	c0,0-0.71,1.63-3.01,1.98c-2.82,1.34-5.64,2.67-9.52,1.38c-1.15-3.57-2.31-7.14-1.95-12.77c4.77-6.66,9.54-13.33,16.47-20.89
	c0.85-2.07,1.69-4.14,3.18-9.38c0.48-4.26,0.96-8.51,3.76-13.91c-0.78-7.72-1.56-15.43-3.1-25.99c0.24-2.91,0.48-5.81,3.37-9.75
	c-0.99-16.56-1.98-33.13-3.23-52.48c0.25-2.77,0.49-5.54,3.01-9.6c-1.1-7.75-2.2-15.5-4.14-23.96c0,0-0.19-1.08-0.97-2.29
	c-0.68-0.7-1.48-1.22-5.41-3.07c-31.21-0.33-62.42-0.86-93.62-0.71c-3.51,0.02-7,3.92-10.88,8.71c-0.19,0.89-0.38,1.77-1.99,3.43
	c-0.75,0.82-1.25,1.77-4,3.42c0.85,3.84,1.7,7.69,2.65,15.17c0.02,58.66,0.05,117.32-2.7,176.05c-3.69-0.02-7.38-0.04-11.75-3.26
	c-0.34-5.43-0.67-10.86-0.21-19.86c0-16.33,0-32.66,0-48.9c-8.99-0.9-14.67-1.46-20.95-3.47c-1.1,0.47-2.2,0.93-6.2,2.07
	c-2.94-0.26-5.89-0.52-10.41-2.87c-4.69,0.59-9.38,1.18-16.3,2.68c-0.64,0.48-1.28,0.96-3.75,0.44c-0.61-0.34-1.21-0.68-4-3.37
	c-13.64,0.97-27.27,1.94-41.79,3.61c0,0-0.98-0.55-4.13-0.72c-2.15,4-6.23,8.03-6.16,11.99c0.67,34.58,1.96,69.14,3.38,103.7
	c0.23,5.56,2.02,11.06,3.88,18.62c0.21,0.69,0.42,1.39-0.37,4.83c0.23,2.89,0.45,5.78-0.03,10.71c-0.22,0.69-0.43,1.38-2.38,4.06
	c0.58,5.83,1.17,11.66,2.32,20.6c-0.19,13.63-0.38,27.25-2.18,43.56c0.83,2.77,1.65,5.55,2.72,11.44c0.04,4.17,0.08,8.35-0.07,12.35
	c0,0,0.23,0.11-1.49,0.64c-1.07,0.62-1.89,1.48-4.31,3c0,0-1.88,0.32-4.88,0.04c-6.74,3.02-13.48,6.04-21.34,9.89
	c0,0-1.39,0.12-4.11-1.14c-0.99-0.15-1.97-0.3-3.15-3.58c-0.1-1.04-0.19-2.08-2.13-5.61c6.7-2.67,13.4-5.35,21.73-7.72
	c0.51-0.18,1.47-0.4,1.46-0.52c-0.1-0.94-0.39-1.87-0.49-6.42c-0.12-14.53-0.25-29.05,0.66-46.97c-0.41-11.82-0.83-23.65-0.11-35
	c0,0,1.22,0.04,3.27-1.08c-0.71-5.1-1.42-10.2-3.04-18.54c-0.62-8.98-1.23-17.96-3.69-29.7c-22.65-0.69-45.29-1.84-67.94-1.82
	c-7.84,0.01-15.68,2.92-24.15,6.3c0,0-1.54,1.13-3.62,1.56c0.16,2.57,0.32,5.15,1.29,10.87c-0.28,5.38-0.55,10.75-3.25,16.45
	l-3.88,4.94c2.11,0.94,4.22,1.88,7.2,6.38c0.58,32.69,1.16,65.39,0.67,100.66c1.85,5.94,3.71,11.87,4.51,19.3
	c0.58,1.85,1.17,3.71,0.72,7.26c-0.91,2.05-1.82,4.11-5.09,7.61c-4.6,0.54-9.19,1.09-15.11,0.1c-2.18,0.77-4.37,1.54-9.34,2.77
	c-5.58,0.43-11.15,0.86-17.67,0.36c-1.07,0.48-2.14,0.97-6.02,2.05c-2.87-0.08-5.73-0.16-9.41-1.37c-1.13,0.38-2.27,0.77-6.49,1.46
	c-4.13-0.19-8.26-0.38-14.54-2.25c-7.1,0.32-14.19,0.65-21.74,1.81c0,0,0.23,0.92-1.99-0.06c-3.12-0.81-6.25-1.62-11.21-4.59
	c-6.61-1.47-13.21-2.94-21.74-4.71c-1.24-0.5-2.52-0.62-5.56-1.71c-0.7,0.21-1.4,0.41-4.25-0.73c-5.51-4.9-11.03-9.8-17.25-17.04
	c-2.51-1.93-5.01-3.86-7.56-5.65c0,0,0.15-0.14-0.5-2.75c-23.35-29.1-37.88-62.5-47.74-101.34c-2-10.74-3.99-21.49-4.72-34.9
	c-0.93-5.55-1.86-11.1-1.9-19.63c-0.28-3.07-0.56-6.14,0.88-11.82c0.21-52.31,13.87-101.45,34.75-149.14c0,0-0.14,0.44,2.04-0.34
	c0.48-1.41,0.97-2.82,3.28-6.06c27.33-46.25,66.13-81.79,110.21-114.91c25.22-12.86,50.44-25.72,76.8-37.99
	c1.04-0.23,1.47-0.87,3.78-2.18c0.76-0.35,1.52-0.71,4.58-0.45c1.86-1.22,3.71-2.44,8.33-3.82c1.65-0.78,3.3-1.57,6.27-1.38
	c1.29,0.08,2.12-0.5,4.41-1.77c1.38-0.32,2.32-1.13,4.69-2.58c0,0,1.71-0.74,3.74-0.62c0.99-0.82,1.99-1.65,3.28-2.53
	c0,0,0.3-0.07,3.45,0c13.01-2.88,26.01-5.76,41.4-7.45c6.04-1.77,12.09-3.53,21.06-4.8c4.93-0.36,9.86-0.72,16.78-0.7
	c0.63-0.25,1.26-0.51,5.54-0.52c24.86-0.13,49.72-0.26,76.48,0.27c0.66-0.12,1.32-0.24,5.1,0.31c13.96,1.73,27.92,3.47,45.54,10.58
	c4.21-2.88,4.1-2.8,8.32-5.68c-0.06-2.25-0.12-4.51-0.18-6.76c-7.01-1.27-14.02-2.55-22.28-6.23c-7.67-2.51-15.34-5.02-24.7-9.51
	c-3.34-0.05-6.67-0.1-12.38-1.46c-1.78-0.15-3.56-0.3-7.71-1.61c-1.74,0.03-3.48,0.06-5.29,0.39c0,0,0.21-0.24-0.68-1.45
	c-0.96-0.67-1.89-0.62-5.99-1.28c-8.33-1.28-16.63-3.06-25.01-3.77c-48.62-4.09-96.98-4.07-147.23,10.36
	c-35.71,14.25-71.42,28.51-109.73,43.38c-19.53,13.49-41.34,24.65-58.06,41c-25.93,25.37-48.4,54.28-74.68,83.33
	c-10.76,17.13-21.53,34.25-34.25,52.71c-0.36,1.5-0.72,3-1.12,6.76c-1.33,2.61-2.66,5.22-6.43,9.13c-0.46,2.63-0.93,5.25-1.35,10.04
	c-0.59,1.3-1.18,2.61-4.57,4.69c-1.08,5.53-2.17,11.07-2.88,18.75c-0.44,1.37-0.88,2.74-3.56,5.72c-2.21,12.48-4.41,24.95-6.2,40.03
	c0.24,1.73,0.47,3.46-0.16,4.84c0,0-0.94-0.07-3.55,1.13c-12.48,38.67-7.88,77.6-1.19,116.42c1.18,6.85,5.47,13.16,9,22.4
	c1.19,4.33,2.38,8.66,2.47,13.84c0.61,0.96,1.23,1.92,2.68,4.33c0,0-0.17,1.66-0.52,4.17c1.21,2.05,2.42,4.11,4.69,7.76
	c0.66,1.19,0.77,2.43,0.16,6.35c1.11,1.27,2.23,2.54,4.07,4.67c0,0-0.37,1.06-0.81,4.05c1.58,2.27,3.15,4.55,6.35,8.54
	c4.35,5.73,8.7,11.45,13.62,19.25c1.17,0.75,2.34,1.51,5.73,3.15c2.68,1.64,5.36,3.29,7.82,6.29c0,0-0.11,1.37-1.58,3.21
	c5.82,13.36,13.6,23.2,32.54,17.3c1.81,1.17,3.63,2.35,6.57,6.09c8.72,3.17,17.44,6.34,26.21,9.48c0,0,0,0.04,1.72,2.11
	c3.48,0.52,6.97,1.05,12.35,1.61c0,0,1.65,0.94,2.85,2.5c1.25,0.18,2.51,0.36,2.81,1.27c0,0,0.85-0.85,0.39,1.61
	c1.38,2.77,2.77,5.55,4.83,9.68c2.89-4.67,4.52-7.3,8.21-10.57c0.67-0.24,1.35-0.49,3.79,0.75c2.06,1.02,4.12,2.04,7.49,4.94
	c2.18,0.53,4.37,1.06,8.51,1.9c0.64,0.18,1.27,0.36,4.23,2.46c8.31,0.41,16.61,0.82,24.96,1.26c0,0,0.05,0.01,2.34,2.33
	c41.51-1.64,83.02-3.06,124.51-5.08c10.85-0.53,23.25-5.64,18.78,13.63c-2.88,0.41-5.76,0.81-10.22-0.84
	c-7.36,2.96-14.71,5.93-25.5,9.06c-11.98,0.98-23.96,1.96-37.57,2.14c0,0-1.52,1-3.07-0.11c-2.31,0.57-4.62,1.15-9.75,0.92
	c-2.86,0.36-5.72,0.72-11.54-0.09c-23.82-2.07-47.63-4.13-72.01-7.57c-1.12,0.31-2.23,0.63-6.41,1.2
	c-26.49-8.74-52.97-17.48-80.59-28.7c-2.53-0.63-5.07-1.27-10.19-1.98c-5.19-2.91-10.37-5.82-16.73-10.99
	c-4.18-1.02-8.37-2.03-12.55-3.05c1.61,1.83,3.23,3.67,6,7.1c0.02,0.66,0.03,1.31-0.2,4.76c0.01,1.87,0.02,3.73-2.18,5.9
	c-1.26,1.17-2.52,2.35-3.78,3.52c0.81,0.7,1.62,1.41,2.44,2.11c1.17-1.99,2.35-3.98,5.15-6.57c1.16-0.5,1.87-1.36,4.08-0.95
	c19.99,24.56,38.85,50.16,60.24,73.44c32.6,35.47,75.58,56.17,118.11,79.71c2.5,0.4,5,0.8,10.51,1.47
	c3.97,0.66,7.94,1.32,13.27,3.81c2.17,0.34,4.34,0.69,6.55,2.33c0,0,0.52,1.66-1.94,2.77c-0.68,3.97-0.93,5.42-1.6,9.39l7.9,7.83
	c1.51-5.37,3.01-10.73,7.3-16.17c4.25,1.53,8.49,3.06,13.06,6.06c1.12-0.19,2.24-0.38,6.35-0.82c6.79,1.68,13.59,3.36,21.04,7.59
	c6.31,0.28,12.62,0.56,22.07,0.42c4.19-0.08,8.37-0.16,12.13,0.63c0,0-0.02,0.98,0.6,3.03c2.63-0.19,5.25-0.38,11.26-1.02
	c7.94,0.58,15.87,1.15,26.11,3.62c9.64-0.65,19.28-1.3,31.85-2.51c2.95-0.33,5.9-0.65,11.45-0.39c1.73-0.33,3.46-0.65,7.14-0.18
	c0.66,0.25,1.31,0.5,2.71,2.01c1.06-0.5,2.11-1.01,5.62-2.51c1.74,0.16,3.48,0.31,6.19,2.28c2.39-1.02,4.78-2.03,9.61-4.41
	c1.74-0.64,3.48-1.28,7.18-1.12c0.66,0.25,1.33,0.5,3.28,2.42c2.16-0.89,4.32-1.78,9.01-3.9c5.52-0.78,11.04-1.56,19.52-1.93
	c4.39-1.45,8.77-2.89,14.48-5.6l1.71-0.63c0,0,1.8,0.29,4.39,0.93c1.41-0.96,2.81-1.93,4.25-2.71c0,0-0.1-0.15,2.89,0.14
	c8.24-3.2,16.48-6.39,26.85-11.27c1.41-1.08,2.81-2.17,6.13-2.98c1.32-0.23,2.43-0.84,5.65-1.61c1.01-1.11,2.02-2.22,5.19-3.14
	c1.43-0.13,2.86-0.26,6,1.05c8.36-4.92,16.72-9.84,25.2-16.18c0,0-0.06-1.42,2.01-1.23c1.34-0.29,2.68-0.58,6.54-0.95
	c1.07-1.21,2.13-2.42,3.27-3.22c0,0-0.33-0.25,2.51,0.15c3.17-2.55,6.33-5.11,10.15-8.69c0,0,1.21,0.17,3.86-0.2
	c1.09-1.35,2.18-2.7,4.1-5.47c0.83-0.82,1.84-1.22,5.7-1.35c1.68-1.85,3.36-3.71,6.08-7.4c2.35-1.38,4.71-2.76,9.62-4.27
	c1.54-1.77,3.08-3.54,5.43-7.27c2.26-1.57,4.52-3.14,9.51-4.72c1.89-2.63,3.78-5.26,6.15-9.76c0.73-1.23,1.82-1.83,5.57-1.69
	c2.03-2.73,4.05-5.46,7.33-10.5c0.77-0.41,1.54-0.82,4.91-1.4c1.74-2.59,3.48-5.18,5.39-7.56c0,0-0.21-0.17,2.79,0
	c13.2-0.5,19.9-5.45,13.57-21.91c1.41-1.71,2.82-3.42,6.8-5.6c19.28-11.25,28-29.28,33.89-51.77c0.56-2.15,1.12-4.3,2.01-8.67
	c0.44-0.61,0.88-1.21,4.08-1.99c17.12-26.77,33.04-53.95,29.45-88.99c0,0,0.86-1.04,3.27-2.76c1.82-17.68,3.63-35.37,4.9-55.95
	c0.32-2.91,0.65-5.82,2.31-9.34c0.25-0.41,0.82-1.03,0.71-1.21c-0.49-0.77-1.19-1.4-2.32-5.53c0.16-9.28,0.32-18.56,1.77-28.59
	c-0.54-1.06-1.08-2.12-2.37-5.68c0.13-1.72,0.26-3.45,2.39-6.41c-1.03-3.61-2.06-7.22-4.05-13.34c0.04-1.79,0.08-3.58,1.77-7.92
	c-2.87-21.41-5.63-42.84-8.88-64.19c-0.2-1.33-4.18-2.08-6.23-3.1c0,0-0.27,0.19,1.01-8.22c-2.19-0.94-1.92-0.82-4.1-1.76
	c-1.51,1.94-3.02,3.91-4.88,7.68c-0.69,1.14-1.68,1.88-5.22,3.25c-0.67,2.28-1.34,4.55-2.25,6.58c0,0,0.31,0.16-1.83,1.57
	c-0.29,1.63-0.59,3.26-1.12,7.24c-0.56,2.26-1.12,4.53-3.15,7.95c0,0-0.13,1.86-1.87,3.24c-1.42,3.34-2.84,6.69-6.22,10.36
	c-0.6,0.27-1.21,0.54-3.57,1.93c-0.72,1.9-1.44,3.81-2.77,8.48c-0.44,1.83-0.89,3.66-2.31,4.95c0,0-0.98-0.54-2.56-0.94
	c-0.3,1.44-0.61,2.88-0.78,5.44c0,0-0.94,0.61-3.29,1.53c-2.09,3.47-4.18,6.94-7.92,11.96c-0.61,2.13-1.22,4.26-2.13,8.28
	c-0.47,1.3-1.36,2.17-4.97,3.67c-0.54,1.54-1.08,3.08-1.58,5.82c0,0-1.01,0.65-2.85,1.66c-0.52,1.26-1.04,2.52-1.34,5.39
	c0,0,0.35,1.59-1.52,2.76c-1.21,0.81-2.41,1.61-5.68,3.4c-1.62,2.47-3.23,4.95-4.91,7.24c0,0,0.16,0.12-2.66,0.11
	c-6.64,0.75-16.26,9.78-15.56-8.4c0.91-2.48,1.83-4.96,4.86-8.52c0.96-2.13,1.91-4.26,5.09-7.28c2.79-4.76,5.57-9.53,10.39-15.2
	c0.59-1.31,1.17-2.61,1.55-3.93c0,0,0.14,0.15,1.68,0.02c0,0,1.47-0.46,3.77-1.24c0.86-2.15,1.72-4.3,2.38-6.62
	c0,0,0.25,0.09,2.04-0.79c0.51-1.19,1.01-2.37,1.79-3.18c0,0-0.38-0.28,1.85-1.22c0.72-2.19,1.44-4.39,2.48-8.63
	c0.09-1.37,0.18-2.74,2.08-5.14c1.62-2.14,3.25-4.28,4.88-4.9c0,0,0.39,1.5,0.83,3.57c1.77,0.79,3.55,1.58,5.32,2.37
	c-0.62-1.86-1.25-3.72-2.19-8.37c-0.3-0.89-0.59-1.78-0.22-5.1c0.46-2.45,0.91-4.9,0.97-7.44c0,0,0.21,0.35,1.9,0.18
	c0,0,1.61-0.56,3.59-1.53c0.39-1.36,0.78-2.72,1.4-5.5c0,0,0.64-1.28,2.48-2.19c0.4-1.25,0.8-2.5,1.35-3.31c0,0-0.22-0.47,2.16-1.25
	c0.53-2.29,1.05-4.58,1.79-6.91c0,0,0.14,0.16,1.58-0.01c0.36-0.31,1.08-0.78,1.02-0.9c-0.36-0.8-0.88-1.53-1.63-4.3
	c-0.14-0.67-0.29-1.33,0.46-2.92c0,0-0.12-1.27,1.58-1.96c0,0,1.58-0.93,3.24,0.29c1.64-4.85,3.29-9.7,5.07-15.92
	c0,0,0.56-1.26,2.66-2.27c0.21-1.45,0.43-2.91,1.06-6.86c1.74-3.81,3.49-7.63,7.7-12.6c7.31-10.31,14.62-20.61,23.36-30.33
	c0,0,1.21,0.95,1.78,3.49c2.92,1.18,5.84,2.36,11.07,4.4c3.94,2.9,7.88,5.79,12.28,11.12c2.66,1.46,5.32,2.92,7.7,4.65
	c0,0,0.43-0.55,0.7,6.26c5.08,2.38,6.08,2.85,11.16,5.23l4.3-3.27c-1.51-4.04-3.01-8.08-4.5-14.92c-0.14-2.79-0.28-5.57-0.16-11.42
	c-3.57-9.65-7.13-19.3-11.47-31.14c-0.25-1.53-0.51-3.06-0.19-7.84c-3.89-12.23-7.78-24.46-12.57-39.1
	c-0.36-2.54-0.72-5.07,0.11-10.8c-4.21-17.38-7.93-34.91-13-52.04c-1.11-3.75-8.13-9.26-10.5-8.44c-5.53,1.94-9.88,7.23-15.93,11.81
	c0,0-1.35,0.27-4.06-0.14c-2.2,2.34-4.4,4.69-7.67,8.71c-1.12,0.68-2.25,1.37-5.98,2.11c-2.92,2.53-5.84,5.06-10.06,9.48
	c-2.1,0.85-4.19,1.7-8.83,2.64c-3.04,2.63-6.07,5.26-10.24,8.61c0,0-1.32,0.27-3.68,0.34c-0.84,1.24-1.68,2.49-3.93,4.79
	c-1,0.62-2.01,1.23-5.48,1.93c-1.67,1.55-3.35,3.11-6.16,6.27c-1.77,0.81-3.53,1.61-7.73,2.51c-0.94,1.22-1.88,2.45-4.18,5.48
	c-3.17,1.94-6.35,3.89-11.81,6.21c-0.91,1.19-1.83,2.39-3.61,4.26c0,0-1.11,0.01-4.05-0.65c-3.59,3.73-7.17,7.46-12.36,12.5
	c-1.8,0.99-3.61,1.98-8.36,2.58c-3.07,2.7-6.14,5.41-9.69,7.75c0,0,0.47,0.39-1.99,0.29c-1.28,1.64-2.55,3.28-3.83,4.92
	c2.21,0.56,4.42,1.12,6.53,2.08c0,0-0.2-0.36,1.29,2.28c13.24,2,26.43,5.09,39.73,5.69c13.74,0.62,14.44,7.35,11.67,17.84
	c-2.04,7.74-3.49,15.64-5.32,26.03c-0.85,2.41-1.7,4.81-3.89,8.26c-0.77,0.93-1.1,1.99-1.17,2.96c0,0,0.28,0.08-1.92,1.36
	c-0.51,2.39-1.03,4.79-1.73,8.83c0,0-0.77,1.47-2.58,2.72c-0.62,2.05-1.24,4.1-2.16,8.5c-1.28,1.92-2.57,3.84-5.49,6.74
	c-0.99,0.9-1.55,2.01-2.14,5.19c0,0-0.64,1.78-2.24,3.2c-0.49,2.04-0.98,4.08-1.89,8.62c-0.09,1.68-0.18,3.35-0.09,5.49
	c0,0,0.04-0.5-2.15,0.46c-2,2.48-4,4.96-7.45,8.39c-0.86,0.86-1.34,1.89-1.46,3.04c0,0,0.07,0.02-1.93,1.26
	c-0.66,2.19-1.32,4.38-1.98,6.56c0,0,0,0-2.69,0.42c-1.69,3.79-3.38,7.59-5.13,11.31c0,0,0.09,0.03-1.9,1.17
	c-0.74,2.1-1.48,4.2-2.04,6.56c0,0-0.3-0.05-1.97,0.87c-1.03,0.85-1.64,1.93-2.47,5.14c-0.27,0.61-0.54,1.21-2.13,2.73
	c-0.79,0.79-1.24,1.75-1.2,3.06C772.63,471.15,772.41,471.07,770.65,471.98 M327.96,443.2c-1.44-0.58-2.88-1.17-4.9-3.49
	c-1.33-1.26-2.65-2.51-5.19-5.78c-1.47-0.34-2.93-0.67-6.38-1.25c-1.62-1.08-3.23-2.17-4.65-4.89c-1.17-0.08-2.34-0.17-6.36-0.72
	c-13.44-3.35-26.87-6.69-41.42-11.37c-2.19,0.2-4.37,0.4-9.89-0.65c-9.98-1.6-16.16,0.5-12.54,12.57c1.6,5.35,2.86,10.81,3.87,18.25
	c0.37,0.58,0.73,1.16,0.87,4.97c1.01,4.13,2.01,8.26,2.39,14.36c0.63,1.89,1.25,3.78,1.65,8.52c6.82,26.01,18.29,48.69,45.25,63.52
	c1.61,0.52,3.22,1.05,6.8,3.4c14.86,5,29.73,10,45.2,15.25c0,0,0.62,0.24,2.43,2.09c4.63,2.31,9.27,4.63,13.49,9.9
	c-1.51,16.09-3.01,32.18-5.81,51.62c0.44,26.22,0.34,52.47,1.65,78.65c0.41,8.29,2.38,18.59,16.78,17.73
	c2.08-0.8,4.17-1.59,8.97-3.39c2.14-5.12,6.85-10.71,6-15.27c-4.8-25.93-10.92-51.62-15.97-80.73c2.55-23.57,5.11-47.14,9.08-72.49
	c1.12-2.28,2.23-4.57,4.98-9.32c0.87-4.85,1.75-9.69,4.66-15.93c1.44-1.98,2.89-3.96,6.89-5.56c1.62-0.54,3.23-1.08,7.31-0.69
	c3.21-0.91,6.43-1.82,12.51-2.82c12.18-6.12,24.37-12.24,39-18.82c2.96-2.81,5.91-5.61,11.33-8.76c3.01-3.72,6.02-7.43,9.34-11.05
	c0,0-0.08-0.32,2.35-0.92c2.26-5.01,4.52-10.02,8.53-17.19c1.02-3.55,2.05-7.1,5.08-12.55c1.67-8.15,3.33-16.31,6.08-27.51
	c0.31-5.38,0.62-10.75,2.29-18.54c0.05-4.54,0.1-9.08,1.29-16.32c0.31-2.91,0.62-5.82,3.12-10.21c-0.61-6.41-1.22-12.83-4.39-19.96
	c-1.7,0.44-3.4,0.88-6.85,0.32c-1.85,0.61-3.69,1.22-5.6,1.76c0,0,0,0.08-3.16-0.38c-11.39,3.48-22.78,6.96-36.61,11.11
	c-2.23,1.16-4.46,2.32-8.88,2.95c-2.31,1.65-4.63,3.31-6.93,5.33c0,0,0.36,0.04-2.38,0.23c-12.7,10.97-27.91,20.1-37.58,33.29
	c-19.37,26.41-33.07,55.44-14.48,91.43c0.73,6.02,1.46,12.05,0.48,20.12c-3.02,5.12-6.05,10.25-10.36,17.57
	c-2.53-5.82-4.18-9.62-6.14-16.39c-2.3-8.17-4.59-16.34-7.06-27.13c-0.4-1.69-0.79-3.39-1.12-7.31c-1.24-1.84-2.48-3.69-3.48-7.95
	c-2-3.27-3.99-6.55-6.19-12.02c-0.45-1.4-0.89-2.8-1.72-6.49c-1.27-0.78-2.53-1.56-5.37-3.09c-0.97-0.75-1.57-1.72-2.34-5.07
	C332.63,445.46,331.38,444.77,327.96,443.2z"/>
</svg>
